<svg viewBox="0 0 200 201" fill="none" xmlns="http://www.w3.org/2000/svg">
  <path
    d="M98.7199 100.94L58.5199 108.3C58.5199 108.3 45.4799 89.5401 45.0799 89.9001C41.0799 93.2601 35.9199 97.4201 35.9199 97.4201C35.9199 97.4201 39.7199 122.7 49.6399 127.74C59.5599 132.78 90.4399 120.38 90.4399 120.38L98.7199 100.94Z"
    fill="#707070"
  />
  <path
    d="M131.64 102.42L152.8 114.9L159.52 80.5801L169.92 84.5001C169.92 84.5001 171.92 146.26 160.56 144.78C149.2 143.3 122 127.06 122 127.06L131.64 102.42Z"
    fill="#707070"
  />
  <path
    d="M98.7196 100.94C98.7196 100.94 84.9996 100.22 75.1596 125.26C65.3196 150.3 58.5996 166.46 58.5996 166.46L120.76 172.66C120.76 172.66 128.28 144.66 131.52 123.9C133.16 113.38 133.72 104.7 131.64 102.46C125.48 95.7402 98.7196 100.94 98.7196 100.94Z"
    fill="#707070"
  />
  <path
    d="M122.48 166.34H122.4C122.24 166.3 122.16 166.14 122.2 165.98L136.44 117.54C136.48 117.38 136.64 117.3 136.8 117.34C136.96 117.38 137.04 117.54 137 117.7L122.76 166.14C122.72 166.26 122.6 166.34 122.48 166.34Z"
    fill="black"
  />
  <path
    d="M60.2401 162.82C60.2001 162.82 60.1601 162.82 60.1201 162.82C59.9601 162.78 59.8801 162.58 59.9601 162.46L79.8801 111.7C79.9601 111.54 80.1201 111.5 80.2801 111.58C80.4001 111.66 80.4401 111.78 80.4401 111.9L60.5601 162.62C60.4801 162.74 60.3601 162.78 60.2401 162.82Z"
    fill="black"
  />
  <path
    d="M90.7998 97.18C90.7998 96.82 90.7998 96.5 90.7998 96.18C90.8398 95.02 90.8398 93.82 91.2798 92.74C91.7998 91.46 92.8798 90.46 93.9998 89.58C98.5198 86.06 104.12 84.1 109.84 83.66C115.56 83.3 121.32 84.26 126.6 86.46C129 87.42 131.36 88.62 133.32 90.34C137 93.62 138.8 98.82 138.24 103.7C138.04 105.38 137.96 108.1 137.28 109.66C136.08 112.38 132.56 112.3 130.16 112.98C127.76 113.66 125.88 115.42 123.68 116.54C121.68 117.54 118.96 117.3 116.76 117.5C111.4 117.9 105.52 117.7 101.08 114.66C98.0398 112.58 97.5198 108.66 95.8398 105.66C94.8798 103.98 93.5998 103.5 92.3598 102.26C91.1198 101.02 90.8398 98.94 90.7998 97.18Z"
    fill="#707070"
  />
  <path
    d="M104 118.38C104.56 120.18 105.84 121.86 107.72 122.46C109.4 123.02 111.32 122.62 112.92 121.74C114.44 120.82 115.8 119.58 116.84 118.14C118.4 116.18 119.68 114.06 120.72 111.82C121.44 110.38 121.88 108.82 122 107.22C122.04 105.62 121.52 103.98 120.32 102.94C117.16 100.22 108.6 100.26 105.68 103.78C102.88 107.02 102.84 114.7 104 118.38Z"
    fill="black"
  />
  <path
    d="M109.36 122.98C108.76 122.98 108.16 122.9 107.6 122.7C105.8 122.1 104.36 120.54 103.72 118.46C102.56 114.74 102.64 106.9 105.44 103.54C106.72 101.98 109.2 100.98 112.16 100.74C115.52 100.46 118.8 101.22 120.48 102.7C121.72 103.86 122.36 105.5 122.28 107.22C122.24 108.98 121.56 110.66 120.96 111.94C119.92 114.22 118.6 116.34 117.04 118.3C115.64 120.06 114.4 121.22 113 121.98C111.92 122.62 110.64 122.98 109.36 122.98ZM104.24 118.3C104.84 120.22 106.16 121.66 107.76 122.18C109.24 122.66 111.08 122.38 112.72 121.46C114.04 120.74 115.2 119.62 116.56 117.94C118.08 116.02 119.36 113.9 120.4 111.7C120.96 110.5 121.6 108.86 121.64 107.18C121.76 105.66 121.16 104.18 120.04 103.14C118.44 101.78 115.36 101.06 112.16 101.34C109.32 101.58 107.04 102.54 105.84 103.94C103.16 107.1 103.12 114.7 104.24 118.3Z"
    fill="black"
  />
  <path
    d="M131 91.3002C132.52 88.7402 134.24 86.3002 135.4 83.5802C136.56 80.8602 137.16 77.8202 136.32 75.1002C136.04 73.9802 135.36 72.9802 134.4 72.3002C133.4 71.6202 132.08 71.6602 131.04 72.3402C130.68 71.0602 129.72 70.0202 128.72 69.1402C126.32 66.9802 123.4 65.5002 120.2 64.9402C116.92 64.3802 113.52 65.0202 110.72 66.7802C109.56 67.5402 108.52 68.4602 107.32 69.1002C105.24 70.1802 102.76 70.1802 100.68 69.1002C99.8401 73.3402 101.32 77.6602 103.92 81.0202C106.52 84.3802 110.16 86.8202 113.96 88.7802C115.96 89.8202 118.08 90.7402 120.36 91.0602C122.64 91.3802 125.12 90.9802 127 89.5402"
    fill="white"
  />
  <path
    d="M131 91.5801C130.96 91.5801 130.88 91.5801 130.84 91.5401C130.72 91.4601 130.64 91.2601 130.76 91.1401C131.16 90.4601 131.56 89.8201 132 89.1401C133.2 87.3401 134.24 85.4201 135.16 83.4601C136.08 81.3401 137 78.1401 136.08 75.1801C135.8 74.1401 135.16 73.1801 134.28 72.5401C133.36 71.9401 132.2 71.9401 131.28 72.5401C131.16 72.6201 130.96 72.6201 130.88 72.5001C130.84 72.4601 130.84 72.4201 130.84 72.3801C130.44 71.1001 129.44 70.0601 128.6 69.3401C126.24 67.2201 123.36 65.7801 120.24 65.2201C117.04 64.6601 113.72 65.3001 110.96 67.0201C110.52 67.3001 110.08 67.6201 109.68 67.9401C109 68.4601 108.28 68.9401 107.52 69.3801C105.48 70.4201 103.08 70.4601 100.96 69.5401C100.36 73.3001 101.52 77.4201 104.2 80.8601C106.44 83.7401 109.6 86.1801 114.16 88.5401C115.96 89.4601 118.16 90.4601 120.48 90.7801C122.92 91.1001 125.28 90.5801 126.92 89.3401C127.04 89.2601 127.24 89.2601 127.32 89.4201C127.4 89.5401 127.4 89.7401 127.24 89.8201C125.48 91.1401 122.96 91.7001 120.4 91.3801C118 91.0601 115.76 90.0201 113.92 89.1001C109.32 86.7001 106.08 84.2201 103.8 81.2601C100.92 77.5801 99.72 73.1401 100.52 69.1001C100.52 69.0201 100.6 68.9401 100.68 68.9001C100.76 68.8601 100.84 68.8601 100.92 68.9001C102.92 69.9001 105.28 69.9001 107.28 68.9001C108 68.5001 108.72 68.0601 109.36 67.5401C109.76 67.2201 110.2 66.9001 110.68 66.6201C113.56 64.8201 117.04 64.1401 120.36 64.7001C123.6 65.3001 126.6 66.7801 129 68.9801C130 69.7801 130.76 70.7801 131.28 71.9401C132.36 71.3801 133.64 71.4601 134.64 72.1001C135.64 72.8201 136.36 73.8601 136.68 75.0601C137.64 78.2201 136.72 81.5401 135.76 83.7401C134.84 85.7401 133.76 87.6601 132.56 89.5001C132.16 90.1401 131.76 90.8201 131.36 91.5001C131.24 91.5001 131.12 91.5801 131 91.5801Z"
    fill="black"
  />
  <path
    d="M109.12 98.8202L105.36 106.06C105.36 106.06 102.48 114.7 109.48 114.98C116.48 115.26 120.84 108.74 120.84 108.74L128.08 92.4602C128.08 92.4602 124.12 88.5802 129.08 78.7002C123.08 79.4202 117.04 78.5802 111.48 76.2202C111.48 76.2202 104.72 86.5402 103.8 91.7402C102.88 96.9402 109.12 98.8202 109.12 98.8202Z"
    fill="white"
  />
  <path
    d="M110 115.26H109.52C107.68 115.18 106.32 114.54 105.48 113.3C103.6 110.58 105.08 106.1 105.12 105.94L108.72 98.98C107.44 98.46 102.72 96.3 103.52 91.62C104.44 86.46 110.96 76.46 111.24 76.02C111.32 75.9 111.48 75.86 111.6 75.9C117.12 78.22 123.12 79.1 129.04 78.38C129.16 78.38 129.24 78.42 129.32 78.5C129.4 78.58 129.4 78.7 129.36 78.82C126.88 83.82 126.72 87.22 127.04 89.18C127.36 91.3 128.32 92.26 128.32 92.26C128.4 92.34 128.44 92.46 128.36 92.58L121.12 108.86C121.04 108.94 116.8 115.26 110 115.26ZM111.6 76.58C110.64 78.06 104.92 87.1 104.12 91.74C103.28 96.62 109.16 98.54 109.24 98.54C109.32 98.58 109.4 98.62 109.44 98.7C109.48 98.78 109.48 98.86 109.44 98.94L105.68 106.18C105.68 106.18 104.28 110.54 105.96 112.98C106.68 114.02 107.92 114.62 109.56 114.66C116.32 114.98 120.6 108.62 120.64 108.54L127.76 92.46C127.08 91.66 124.44 87.66 128.6 78.98C122.8 79.62 116.96 78.78 111.6 76.58Z"
    fill="black"
  />
  <path
    d="M116.48 84.3401C116.48 84.3401 111.52 89.1001 112.2 90.1801C112.88 91.2601 115.44 91.1001 115.44 91.1001"
    fill="white"
  />
  <path
    d="M115 91.38C114.16 91.38 112.519 91.26 111.959 90.3C111.239 89.1 115.12 85.26 116.28 84.1C116.4 83.98 116.56 83.98 116.68 84.1C116.8 84.22 116.8 84.38 116.68 84.5C114.36 86.7 112.12 89.46 112.44 89.98C112.92 90.74 114.76 90.82 115.44 90.74C115.6 90.74 115.719 90.86 115.759 90.98C115.799 91.1 115.639 91.26 115.519 91.3C115.399 91.38 115.24 91.38 115 91.38Z"
    fill="black"
  />
  <path
    d="M122.832 84.0644C122.994 83.2409 122.845 82.5178 122.499 82.4492C122.152 82.3807 121.739 82.9927 121.576 83.8162C121.413 84.6398 121.562 85.3629 121.909 85.4315C122.256 85.5 122.669 84.888 122.832 84.0644Z"
    fill="black"
  />
  <path
    d="M112.743 82.2292C112.893 81.4032 112.733 80.6824 112.385 80.6192C112.037 80.556 111.634 81.1744 111.484 82.0003C111.334 82.8263 111.494 83.5471 111.842 83.6103C112.189 83.6735 112.593 83.0551 112.743 82.2292Z"
    fill="black"
  />
  <path
    d="M124.8 88.6601C125.68 87.8601 126.72 87.2201 127.88 86.7801C128.48 86.5001 129.12 86.4201 129.8 86.5001C130.28 86.6201 130.76 86.9001 131.08 87.3001C132.12 88.4201 132.64 89.9401 132.44 91.4601C132.36 92.1801 132.12 92.8601 131.68 93.4601C130.96 94.3801 129.96 95.0201 128.84 95.3001C127.72 95.5801 126.6 95.7401 125.44 95.7401"
    fill="white"
  />
  <path
    d="M125.48 96.0202C125.32 96.0202 125.2 95.9002 125.2 95.7402C125.2 95.5802 125.32 95.4602 125.48 95.4202C126.6 95.4202 127.72 95.2602 128.8 94.9802C129.84 94.7002 130.8 94.1002 131.48 93.2602C131.84 92.7002 132.08 92.0602 132.16 91.4202C132.36 89.9802 131.88 88.5402 130.88 87.5002C130.56 87.1402 130.16 86.9002 129.72 86.7802C129.12 86.7002 128.52 86.7802 127.96 87.0202C126.88 87.4602 125.84 88.0602 124.96 88.8602C124.84 88.9802 124.68 88.9802 124.56 88.8602C124.48 88.7402 124.48 88.5802 124.6 88.4602C125.52 87.6202 126.6 86.9802 127.76 86.5002C128.4 86.2202 129.12 86.1002 129.84 86.2202C130.4 86.3802 130.88 86.7002 131.28 87.1002C132.4 88.2602 132.92 89.9002 132.72 91.5002C132.64 92.2602 132.36 92.9802 131.92 93.6202C131.16 94.5802 130.12 95.2602 128.92 95.5802C127.8 95.8602 126.64 96.0202 125.48 96.0602V96.0202Z"
    fill="black"
  />
  <path
    d="M109.12 98.8201C109.12 98.8201 115.08 100.74 119 99.5801C119 99.5801 112.68 106.22 105.36 106.06L109.12 98.8201Z"
    fill="black"
  />
  <path
    d="M105.68 106.34H105.36C105.2 106.34 105.08 106.22 105.08 106.06C105.08 106.02 105.08 105.98 105.12 105.94L108.88 98.7002C108.96 98.5802 109.08 98.5002 109.24 98.5402C109.28 98.5402 115.16 100.42 118.96 99.3002C119.08 99.2602 119.24 99.3002 119.28 99.4202C119.36 99.5402 119.32 99.6602 119.24 99.7802C119 100.06 112.92 106.34 105.68 106.34ZM109.28 99.1802L105.84 105.78C111.32 105.7 116.24 101.74 118.04 100.1C114.6 100.66 110.32 99.4602 109.28 99.1802Z"
    fill="black"
  />
  <path
    d="M99.5999 115.62C99.4799 115.62 99.3599 115.54 99.3199 115.38C97.9599 110.18 95.3599 105.42 91.7599 101.5C91.6399 101.38 91.6399 101.22 91.7599 101.1C91.8799 100.98 92.0399 100.98 92.1599 101.1C95.8399 105.1 98.5199 109.98 99.8799 115.26C99.9199 115.42 99.7999 115.58 99.6399 115.62H99.5999Z"
    fill="black"
  />
  <path
    d="M118.84 120.66C118.76 120.66 118.72 120.62 118.64 120.58C118.52 120.46 118.52 120.3 118.6 120.18C118.64 120.1 124.76 112.66 135.92 109.14C136.08 109.1 136.24 109.18 136.28 109.34C136.32 109.5 136.24 109.66 136.08 109.7C125.08 113.18 119.08 120.5 119.04 120.58C119 120.62 118.92 120.66 118.84 120.66Z"
    fill="black"
  />
  <path
    d="M114.16 85.3802C114.08 85.3802 114 85.3802 113.88 85.3402L107.56 84.3402C106.64 84.1802 106.04 83.3402 106.16 82.4202L106.6 79.7002C106.76 78.7802 107.6 78.1402 108.52 78.3002L114.84 79.3002C115.76 79.4602 116.36 80.3002 116.24 81.2202L115.8 83.9402C115.72 84.7802 115 85.3802 114.16 85.3802ZM114 84.7802C114.28 84.8202 114.6 84.7402 114.8 84.5802C115.04 84.4202 115.2 84.1402 115.24 83.8602L115.68 81.1402C115.76 80.5402 115.36 79.9802 114.76 79.9002L108.44 78.9002C108.16 78.8602 107.88 78.9402 107.64 79.1002C107.4 79.2602 107.24 79.5402 107.2 79.8202L106.76 82.5002C106.68 83.1002 107.08 83.6602 107.68 83.7802L114 84.7802Z"
    fill="black"
  />
  <path
    d="M125.44 87.1402C125.36 87.1402 125.28 87.1402 125.16 87.1002L118.84 86.1002C117.92 85.9402 117.32 85.1002 117.44 84.1802L117.88 81.4602C117.96 81.0202 118.2 80.6202 118.56 80.3802C118.92 80.1002 119.36 80.0202 119.8 80.0602L126.12 81.0602C127.04 81.2202 127.64 82.0602 127.52 82.9802L127.08 85.7002C126.96 86.5402 126.24 87.1402 125.44 87.1402ZM125.24 86.5802C125.52 86.6202 125.84 86.5402 126.04 86.3802C126.28 86.2202 126.44 85.9402 126.48 85.6602L126.92 82.9402C127 82.3402 126.6 81.7802 126 81.7002L119.68 80.7002C119.08 80.6202 118.52 81.0202 118.44 81.6202L118 84.3402C117.92 84.9402 118.32 85.5002 118.92 85.6202L125.24 86.5802Z"
    fill="black"
  />
  <path
    d="M118.16 81.8602C118.08 81.8602 118 81.8202 117.96 81.7802C116.96 80.8202 116.16 81.4202 116.16 81.4602C116.04 81.5402 115.84 81.5402 115.76 81.4202C115.68 81.3002 115.68 81.1002 115.8 81.0202C116.2 80.7002 117.28 80.3402 118.36 81.3802C118.48 81.5002 118.48 81.6602 118.36 81.7802C118.32 81.8202 118.24 81.8202 118.16 81.8602Z"
    fill="black"
  />
  <path
    d="M114.24 94.1002C112.76 94.0602 111.28 93.8202 109.84 93.3402C109.6 93.2602 109.32 93.1802 109.24 93.1802C109.12 93.2202 109 93.1402 108.96 93.0602C108.88 92.9402 108.88 92.7402 109.04 92.6602C109.2 92.5402 109.36 92.6202 110.04 92.7802C112.24 93.4202 118.16 95.1002 120 89.4202C120.04 89.2602 120.2 89.1802 120.36 89.2202C120.52 89.2602 120.6 89.4202 120.56 89.5802V89.6202C119.32 93.2202 116.68 94.1002 114.24 94.1002Z"
    fill="black"
  />
  <path
    d="M60.9999 117.9C60.8399 117.9 60.7199 117.78 60.7199 117.62C60.5199 114.74 58.2799 108.42 58.2399 108.38C58.1999 108.22 58.2799 108.06 58.3999 108.02C58.5599 107.98 58.7199 108.06 58.7599 108.18C58.8399 108.46 61.0399 114.62 61.2799 117.58C61.3199 117.78 61.1999 117.9 60.9999 117.9Z"
    fill="black"
  />
  <path
    d="M95.7998 121.9L84.7198 119.22L83.7598 121.9L94.9998 124.9L95.7998 121.9Z"
    fill="white"
  />
  <path
    d="M95.0002 125.18C94.9602 125.18 94.9602 125.18 94.9202 125.18L83.6802 122.18C83.6002 122.14 83.5202 122.1 83.5202 122.02C83.4802 121.94 83.4802 121.86 83.5202 121.78L84.4802 119.1C84.5202 118.98 84.6802 118.9 84.8402 118.9L95.9202 121.58C96.0002 121.58 96.0802 121.66 96.0802 121.7C96.1202 121.78 96.1202 121.86 96.1202 121.94L95.3202 124.94C95.2802 125.02 95.2402 125.06 95.2002 125.1C95.1202 125.18 95.0402 125.18 95.0002 125.18ZM84.1602 121.7L94.8002 124.54L95.4402 122.1L84.8802 119.54L84.1602 121.7Z"
    fill="black"
  />
  <path
    d="M31.2803 38.6601L41.0003 158.66L165.04 148.62L155.32 28.6201L31.2803 38.6601ZM153.68 125.46L48.4803 133.98L43.2403 69.1401L148.44 60.6201L153.68 125.46Z"
    fill="white"
  />
  <path
    d="M41 158.94C40.92 158.94 40.88 158.9 40.84 158.86C40.8 158.82 40.76 158.74 40.76 158.66L31.04 38.66C31.04 38.5 31.16 38.38 31.28 38.34L155.32 28.3C155.4 28.3 155.48 28.3 155.52 28.38C155.56 28.42 155.6 28.5 155.6 28.58L165.32 148.58C165.32 148.74 165.24 148.86 165.08 148.9L41 158.94ZM31.6 38.94L41.28 158.38L164.76 148.38L155.08 28.94L31.6 38.94ZM48.48 134.26C48.4 134.26 48.36 134.22 48.28 134.18C48.24 134.14 48.2 134.06 48.2 133.98L42.96 69.14C42.96 68.98 43.08 68.86 43.2 68.82L148.4 60.3C148.48 60.3 148.56 60.34 148.6 60.38C148.64 60.42 148.68 60.5 148.68 60.58L153.92 125.42C153.92 125.58 153.8 125.7 153.68 125.74L48.48 134.26ZM43.52 69.38L48.72 133.66L153.32 125.18L148.12 60.86L43.52 69.38Z"
    fill="black"
  />
  <path
    d="M46.6804 51.1801C49.5965 51.1801 51.9604 48.8162 51.9604 45.9001C51.9604 42.9841 49.5965 40.6201 46.6804 40.6201C43.7643 40.6201 41.4004 42.9841 41.4004 45.9001C41.4004 48.8162 43.7643 51.1801 46.6804 51.1801Z"
    fill="#292D32"
  />
  <path
    d="M43.0398 54.8599C42.8798 54.8599 42.7598 54.7399 42.7598 54.5799C42.7598 54.4199 42.8798 54.2999 43.0398 54.2999L146.32 45.9399C146.48 45.9399 146.6 46.0599 146.64 46.1799C146.64 46.3399 146.52 46.4599 146.4 46.4999L43.0398 54.8599Z"
    fill="#292D32"
  />
  <path
    d="M43.6003 61.62C43.4403 61.62 43.3203 61.5 43.3203 61.34C43.3203 61.18 43.4403 61.06 43.6003 61.06L125.2 54.46C125.36 54.46 125.48 54.58 125.52 54.7C125.52 54.86 125.4 54.98 125.28 55.02L43.6003 61.62Z"
    fill="#292D32"
  />
  <path
    d="M62.4414 144.401C62.7045 140.699 59.9166 137.484 56.2146 137.221C52.5125 136.958 49.2981 139.746 49.035 143.448C48.7719 147.15 51.5597 150.364 55.2618 150.627C58.9639 150.891 62.1783 148.103 62.4414 144.401Z"
    fill="#707070"
  />
  <path
    d="M70.8401 149.42C74.5515 149.42 77.5601 146.411 77.5601 142.7C77.5601 138.989 74.5515 135.98 70.8401 135.98C67.1288 135.98 64.1201 138.989 64.1201 142.7C64.1201 146.411 67.1288 149.42 70.8401 149.42Z"
    fill="#707070"
  />
  <path
    d="M51.9599 142.82L53.0399 142.74C53.2799 142.74 53.4799 142.9 53.4799 143.1L53.7199 146.26C53.7199 146.5 53.5599 146.7 53.3599 146.7L52.2799 146.78C52.0399 146.78 51.8399 146.62 51.8399 146.42L51.5999 143.26C51.5599 143.02 51.7199 142.82 51.9599 142.82Z"
    fill="white"
  />
  <path
    d="M54.5205 143.3L54.8005 146.58L59.4405 146.18C59.4405 146.18 60.2005 142.26 59.5605 142.02C58.9205 141.78 57.0805 142.02 57.0805 142.02C57.0805 142.02 57.7605 139.3 57.0405 139.22C56.3205 139.14 55.4405 141.74 54.5205 143.3Z"
    fill="white"
  />
  <path
    d="M70.7205 140.94L70.8005 140.78C71.0005 140.42 71.3205 140.14 71.6805 139.94C71.9605 139.78 72.2805 139.7 72.6005 139.7C73.5205 139.7 74.2805 140.3 74.4805 141.18C74.5205 141.42 74.5605 141.7 74.5605 141.98C74.5605 142.62 74.3205 143.3 73.9205 143.78C73.6805 144.1 73.4005 144.42 73.1205 144.7L71.6405 146.22C71.4805 146.38 71.3605 146.54 71.2005 146.7L71.1605 146.74L71.0405 146.66C70.4805 146.22 69.9205 145.78 69.3205 145.38C68.9605 145.1 68.5605 144.82 68.2005 144.54C67.9605 144.34 67.7205 144.06 67.5205 143.82C67.3205 143.54 67.1605 143.18 67.0805 142.86C67.0005 142.58 67.0005 142.34 66.9605 142.06C66.9205 141.26 67.3605 140.54 68.0805 140.22C68.8005 139.9 69.6405 140.02 70.2405 140.54C70.4805 140.62 70.6005 140.74 70.7205 140.94Z"
    fill="white"
  />
  <path
    d="M83.0961 40.5849L55.4277 42.8257L55.699 46.1746L83.3673 43.9338L83.0961 40.5849Z"
    fill="#292D32"
  />
  <path
    d="M82.5603 142.02C82.4003 142.02 82.2803 141.9 82.2803 141.74C82.2803 141.58 82.4003 141.46 82.5603 141.46L102.4 139.86C102.56 139.86 102.68 139.98 102.72 140.1C102.72 140.26 102.6 140.38 102.48 140.42L82.5603 142.02Z"
    fill="#292D32"
  />
  <path
    d="M58.08 89.6999C57.56 89.6999 57.12 89.3799 56.96 88.8999L55.08 82.4999C54.92 81.8999 55.24 81.2599 55.84 81.0599L58.08 80.4199C58.68 80.2599 59.32 80.5799 59.52 81.1799L61.4 87.5799C61.48 87.8599 61.44 88.1799 61.32 88.4599C61.16 88.7399 60.92 88.9399 60.64 89.0199L58.4 89.6599C58.32 89.6999 58.2 89.6999 58.08 89.6999ZM58.44 80.8999C58.4 80.8999 58.32 80.8999 58.28 80.9399L56.04 81.5799C55.72 81.6599 55.56 81.9799 55.64 82.2999L57.52 88.6999C57.6 89.0199 57.92 89.1799 58.24 89.0999L60.48 88.4599C60.64 88.4199 60.76 88.2999 60.84 88.1799C60.92 88.0599 60.92 87.8999 60.88 87.7399L59 81.3399C58.92 81.0599 58.72 80.8999 58.44 80.8999Z"
    fill="#292D32"
  />
  <path
    d="M63.4402 88.18C63.4002 88.18 63.3602 88.18 63.3202 88.14C63.2402 88.1 63.2002 88.06 63.2002 87.98L61.2402 81.3C61.2402 81.26 61.2402 81.18 61.2402 81.14C61.6402 79.94 62.0002 78.5 62.3202 77.14C63.0802 74.02 63.6402 71.54 64.9202 71.46C65.2002 71.46 65.4402 71.54 65.6402 71.74C66.6002 72.66 66.6002 75.94 66.5602 77.14C67.5602 76.82 70.2402 76.02 71.4402 76.18C71.8402 76.22 73.0802 77.02 73.2002 85.1C73.2002 85.22 73.1202 85.34 73.0002 85.38L63.5202 88.18C63.4802 88.18 63.4802 88.18 63.4402 88.18ZM61.7602 81.22L63.6402 87.54L72.6402 84.9C72.5602 80.98 72.0402 76.86 71.3602 76.74C70.0402 76.54 66.4002 77.78 66.3602 77.78C66.2802 77.82 66.1602 77.78 66.1202 77.74C66.0402 77.7 66.0002 77.58 66.0002 77.5C66.0402 76.26 66.0402 72.86 65.2402 72.1C65.1602 72.02 65.0802 71.98 64.9602 71.98C64.0802 72.02 63.4402 74.78 62.8802 77.22C62.5202 78.58 62.1602 80.02 61.7602 81.22Z"
    fill="#292D32"
  />
  <path
    d="M81.7199 94.8199C81.0399 94.8199 80.3599 94.7399 79.7199 94.6199C77.3599 94.1399 75.3199 92.7399 74.3199 90.8999C74.2399 90.7799 74.2799 90.5799 74.3999 90.4999C74.5199 90.4199 74.7199 90.4599 74.7999 90.5799L74.8399 90.6199C75.7999 92.3399 77.6799 93.6599 79.8799 94.0599C81.7599 94.4199 83.8799 94.2199 86.1599 93.4199C86.3199 93.3799 86.4799 93.4599 86.5199 93.5799C86.5599 93.7399 86.4799 93.8999 86.3599 93.9399C84.8399 94.4999 83.2799 94.7799 81.7199 94.8199Z"
    fill="#292D32"
  />
  <path
    d="M167.921 84.4602C169.321 83.5402 170.801 71.2602 166.641 68.4202C163.641 66.3402 160.761 64.0602 158.001 61.6602L158.401 66.5402C158.401 66.5402 154.041 64.9802 153.401 67.1002C152.761 69.2202 153.761 72.2202 159.201 76.4602L159.521 80.5002L167.921 84.4602Z"
    fill="white"
  />
  <path
    d="M167.92 84.74C167.88 84.74 167.84 84.74 167.8 84.7L159.4 80.78C159.32 80.74 159.24 80.66 159.24 80.54L158.92 76.62C154.28 72.94 152.32 69.74 153.12 67.02C153.24 66.58 153.56 66.18 153.96 65.98C155.16 65.38 157.16 65.86 158.04 66.1L157.68 61.66C157.68 61.54 157.72 61.42 157.84 61.38C157.96 61.34 158.08 61.34 158.16 61.42C160.92 63.82 163.76 66.06 166.76 68.14C169.28 69.86 169.64 74.46 169.64 77.06C169.64 80.22 169 84.02 168.08 84.62C168.04 84.74 168 84.78 167.92 84.74ZM159.8 80.34L167.88 84.1C168.4 83.46 169.08 80.62 169.08 77.1C169.12 72.86 168.16 69.78 166.48 68.66C163.68 66.7 160.96 64.58 158.36 62.38L158.68 66.54C158.68 66.7 158.6 66.86 158.44 66.86C158.4 66.86 158.36 66.86 158.28 66.82C158.24 66.82 155.52 65.86 154.24 66.5C153.96 66.62 153.76 66.86 153.68 67.18C152.96 69.66 154.88 72.7 159.36 76.26C159.44 76.3 159.48 76.38 159.48 76.46L159.8 80.34Z"
    fill="black"
  />
  <path
    d="M30.3208 77.0999C30.2008 77.7399 30.2808 78.3799 30.5208 78.9799C31.3608 81.6199 37.4808 91.6599 37.3208 83.8199C37.2408 81.4999 31.1208 73.6599 30.3208 77.0999Z"
    fill="white"
  />
  <path
    d="M36.2804 87.0601C34.2004 87.0601 30.7604 80.8201 30.2004 79.0601C29.9604 78.4201 29.8804 77.7001 30.0004 77.0201C30.2404 75.9801 30.9204 75.9001 31.2804 75.9401C33.4004 76.1801 37.5204 81.7001 37.5604 83.8201C37.6004 85.8601 37.2404 86.9001 36.4004 87.0201C36.4004 87.0601 36.3204 87.0601 36.2804 87.0601ZM30.6004 77.1801C30.5204 77.7801 30.6004 78.3801 30.8004 78.9001C31.4804 81.1001 35.0004 86.7001 36.3604 86.4601C36.5604 86.4201 37.0804 86.1001 37.0404 83.8201C37.0004 82.0601 33.0404 76.7001 31.2804 76.5001C31.0404 76.5001 30.7604 76.5401 30.6004 77.1801Z"
    fill="black"
  />
  <path
    d="M35.3208 83.1801C35.2808 83.1401 35.2408 83.1401 35.1608 83.1001C30.8808 81.1401 31.3608 88.7801 31.7608 91.0201C32.2008 93.4601 33.5208 99.3401 37.2008 96.8601C41.1608 94.1801 39.3208 85.2201 35.3208 83.1801Z"
    fill="white"
  />
  <path
    d="M35.5207 97.7801C35.2407 97.7801 34.9207 97.7001 34.6807 97.6201C33.2407 97.0201 32.1607 94.8201 31.4807 91.1001C31.1607 89.4601 30.7607 84.3801 32.6807 82.9401C33.3607 82.4201 34.2407 82.3801 35.2807 82.9001L35.4407 82.9801C37.7207 84.1401 39.4407 87.4201 39.6807 90.9801C39.8407 93.7801 39.0007 96.0201 37.3607 97.1401C36.8407 97.5001 36.2007 97.7401 35.5207 97.7801ZM33.8807 83.0601C33.5607 83.0601 33.2807 83.1401 33.0007 83.3401C31.4807 84.5401 31.6807 89.0601 32.0407 90.9801C32.8407 95.3401 34.0407 96.7001 34.8807 97.0601C35.5207 97.3401 36.2007 97.1801 37.0007 96.6601C38.4807 95.6601 39.2407 93.5801 39.0807 91.0201C38.8807 87.7001 37.2007 84.5401 35.1607 83.4601L35.0407 83.3801C34.6807 83.2201 34.2807 83.1001 33.8807 83.0601Z"
    fill="black"
  />
</svg>
