<svg width="128" height="44" viewBox="0 0 128 44" fill="none" xmlns="http://www.w3.org/2000/svg">
<g clip-path="url(#clip0_381_3428)">
<path d="M48.1362 37.2381H50.8706V26.9238H48.1362V37.2381ZM48.1362 25.3153H50.8706V22.8624H48.1362V25.3153Z" fill="#0D0E0E"/>
<path d="M52.6323 40.6159H55.3667V36.072H55.407C55.99 36.9566 56.935 37.5397 58.3826 37.5397C61.0366 37.5397 62.8461 35.4286 62.8461 32.091C62.8461 28.874 61.0969 26.6423 58.3625 26.6423C56.9551 26.6423 55.99 27.3058 55.3265 28.2105H55.2662V26.9238H52.6323V40.6159ZM57.7996 35.2677C56.171 35.2677 55.3064 34.0413 55.3064 32.1714C55.3064 30.3217 55.99 28.8539 57.699 28.8539C59.3879 28.8539 60.0715 30.2211 60.0715 32.1714C60.0715 34.1217 59.1869 35.2677 57.7996 35.2677Z" fill="#0D0E0E"/>
<path d="M68.3006 37.5397C70.8741 37.5397 72.6434 36.2931 72.6434 34.2222C72.6434 31.8095 70.7334 31.327 69.0043 30.9651C67.5365 30.6635 66.1693 30.583 66.1693 29.6984C66.1693 28.9545 66.873 28.5523 67.9387 28.5523C69.1048 28.5523 69.8085 28.9545 69.9291 30.0603H72.4022C72.2011 27.9894 70.6932 26.6423 67.9789 26.6423C65.6265 26.6423 63.7767 27.7079 63.7767 29.9396C63.7767 32.1915 65.5863 32.6942 67.436 33.0561C68.8434 33.3375 70.1503 33.4381 70.1503 34.4233C70.1503 35.1471 69.4667 35.6095 68.2603 35.6095C67.0339 35.6095 66.1894 35.0868 66.0085 33.9005H63.4751C63.636 36.0921 65.3048 37.5397 68.3006 37.5397Z" fill="#0D0E0E"/>
<path d="M83.025 37.2381V26.9238H80.2906V32.8751C80.2906 34.2423 79.5065 35.2074 78.2197 35.2074C77.0536 35.2074 76.5107 34.5439 76.5107 33.3375V26.9238H73.7964V33.8C73.7964 36.0518 75.0832 37.5196 77.3753 37.5196C78.8229 37.5196 79.6271 36.9767 80.3309 36.0317H80.3912V37.2381H83.025Z" fill="#0D0E0E"/>
<path d="M84.7939 37.2381H87.5284V31.2465C87.5284 29.8793 88.2723 28.9947 89.3781 28.9947C90.3834 28.9947 90.9665 29.5978 90.9665 30.764V37.2381H93.7009V31.2465C93.7009 29.8793 94.4046 28.9947 95.5506 28.9947C96.5559 28.9947 97.139 29.5978 97.139 30.764V37.2381H99.8734V30.3016C99.8734 28.0497 98.6469 26.6423 96.4755 26.6423C95.1686 26.6423 94.0829 27.3259 93.3792 28.4518H93.339C92.8363 27.3661 91.7908 26.6423 90.4839 26.6423C89.0564 26.6423 88.0511 27.3661 87.4881 28.3111H87.4278V26.9238H84.7939V37.2381Z" fill="#0D0E0E"/>
<path d="M48.1763 19.572H50.9107V5.19629H48.1763V19.572Z" fill="#0D0E0E"/>
<path d="M57.5964 19.8736C60.7933 19.8736 62.9848 17.5011 62.9848 14.4249C62.9848 11.3487 60.7933 8.9762 57.5964 8.9762C54.3996 8.9762 52.208 11.3487 52.208 14.4249C52.208 17.5011 54.3996 19.8736 57.5964 19.8736ZM57.5964 17.7826C55.9075 17.7826 54.9827 16.4355 54.9827 14.4249C54.9827 12.4143 55.9075 11.0471 57.5964 11.0471C59.2652 11.0471 60.2102 12.4143 60.2102 14.4249C60.2102 16.4355 59.2652 17.7826 57.5964 17.7826Z" fill="#0D0E0E"/>
<path d="M68.8 23.0906C70.3281 23.0906 71.6551 22.7287 72.5196 21.9244C73.2836 21.2207 73.7461 20.2355 73.7461 18.7879V9.25768H71.1122V10.3434H71.072C70.4487 9.47884 69.5037 8.9762 68.2169 8.9762C65.6032 8.9762 63.7534 10.9466 63.7534 14.0228C63.7534 17.1392 66.0053 18.9487 68.2974 18.9487C69.6043 18.9487 70.3884 18.426 70.9916 17.7424H71.0519V18.8683C71.0519 20.2757 70.308 21.0196 68.7598 21.0196C67.4931 21.0196 66.9101 20.517 66.6889 19.8736H63.9746C64.2561 21.8842 65.9852 23.0906 68.8 23.0906ZM68.7598 16.7572C67.3524 16.7572 66.4275 15.7318 66.4275 13.9826C66.4275 12.2535 67.3524 11.1677 68.7397 11.1677C70.3884 11.1677 71.1926 12.4545 71.1926 13.9625C71.1926 15.4905 70.4889 16.7572 68.7598 16.7572Z" fill="#0D0E0E"/>
<path d="M80.3923 19.8736C83.5891 19.8736 85.7807 17.5011 85.7807 14.4249C85.7807 11.3487 83.5891 8.9762 80.3923 8.9762C77.1955 8.9762 75.0039 11.3487 75.0039 14.4249C75.0039 17.5011 77.1955 19.8736 80.3923 19.8736ZM80.3923 17.7826C78.7034 17.7826 77.7785 16.4355 77.7785 14.4249C77.7785 12.4143 78.7034 11.0471 80.3923 11.0471C82.0611 11.0471 83.0061 12.4143 83.0061 14.4249C83.0061 16.4355 82.0611 17.7826 80.3923 17.7826Z" fill="#0D0E0E"/>
<path d="M88.1777 15.6313H99.9998V13.2789H88.1777V15.6313Z" fill="#0D0E0E"/>
<path d="M100.867 25.1717C100.867 24.709 101.242 24.3339 101.705 24.3339H103.38C103.843 24.3339 104.218 24.709 104.218 25.1717C104.218 25.6343 103.843 26.0094 103.38 26.0094H101.705C101.242 26.0094 100.867 25.6343 100.867 25.1717Z" fill="#0D0E0E"/>
<path fill-rule="evenodd" clip-rule="evenodd" d="M20.5215 2C31.5672 2 40.5215 10.9543 40.5215 22C40.5215 33.0457 31.5672 42 20.5215 42C9.47579 42 0.521484 33.0457 0.521484 22C0.521484 10.9543 9.47579 2 20.5215 2ZM19.7986 3.49659C17.517 3.81769 15.3444 5.65108 13.6579 8.7174C13.1687 9.60683 12.7273 10.5895 12.3426 11.6504C14.6358 11.0742 17.1549 10.7344 19.7986 10.6819V3.49659ZM10.6523 12.1308C11.1306 10.6296 11.7158 9.2484 12.3911 8.02065C13.2271 6.50059 14.2193 5.18795 15.3372 4.17977C9.25828 5.94523 4.46671 10.7368 2.70126 16.8157C3.70943 15.6978 5.02208 14.7056 6.54214 13.8696C7.76989 13.1943 9.15106 12.6091 10.6523 12.1308ZM10.1719 13.8211C9.59565 16.1143 9.25591 18.6334 9.20336 21.2771H2.01807C2.33918 18.9954 4.17257 16.8228 7.23889 15.1364C8.12832 14.6472 9.11095 14.2058 10.1719 13.8211ZM10.6495 21.2771C10.7092 18.392 11.1245 15.6834 11.8117 13.2902C14.2049 12.603 16.9136 12.1876 19.7986 12.1279V15.2508C18.7223 18.0062 16.5271 20.2012 13.7716 21.2771H10.6495ZM9.20336 22.7229H2.01807C2.33918 25.0046 4.17257 27.1771 7.23889 28.8636C8.12832 29.3528 9.11095 29.7942 10.1719 30.1789C9.59565 27.8857 9.25591 25.3666 9.20336 22.7229ZM11.8117 30.7098C11.1245 28.3166 10.7092 25.608 10.6495 22.7229H13.7716C16.5271 23.7988 18.7224 25.9938 19.7986 28.7492V31.8721C16.9136 31.8124 14.2049 31.397 11.8117 30.7098ZM10.6523 31.8692C9.15106 31.3909 7.76989 30.8057 6.54214 30.1304C5.02208 29.2944 3.70943 28.3022 2.70126 27.1843C4.46671 33.2632 9.25828 38.0548 15.3372 39.8202C14.2193 38.812 13.2271 37.4994 12.3911 35.9793C11.7158 34.7516 11.1306 33.3704 10.6523 31.8692ZM19.7986 40.5034C17.517 40.1823 15.3444 38.3489 13.6579 35.2826C13.1687 34.3932 12.7273 33.4105 12.3426 32.3496C14.6358 32.9258 17.1549 33.2656 19.7986 33.3181V40.5034ZM25.7058 39.8202C26.8237 38.812 27.8159 37.4994 28.652 35.9793C29.3272 34.7516 29.9124 33.3704 30.3907 31.8692C31.8919 31.3909 33.2731 30.8057 34.5009 30.1304C36.0209 29.2944 37.3336 28.3022 38.3417 27.1843C36.5763 33.2632 31.7847 38.0548 25.7058 39.8202ZM28.7004 32.3496C28.3157 33.4105 27.8743 34.3932 27.3851 35.2826C25.6987 38.3489 23.5261 40.1823 21.2444 40.5034V33.3181C23.8881 33.2656 26.4072 32.9258 28.7004 32.3496ZM30.8711 30.1789C31.932 29.7942 32.9147 29.3528 33.8041 28.8636C36.8704 27.1771 38.7038 25.0046 39.0249 22.7229H31.8396C31.7871 25.3666 31.4473 27.8857 30.8711 30.1789ZM30.3936 22.7229C30.3339 25.608 29.9185 28.3166 29.2313 30.7098C26.8381 31.397 24.1295 31.8124 21.2444 31.8721V28.7515C22.3203 25.9951 24.516 23.7991 27.2723 22.7229H30.3936ZM31.8396 21.2771H39.0249C38.7038 18.9954 36.8704 16.8228 33.8041 15.1364C32.9147 14.6472 31.932 14.2058 30.8711 13.8211C31.4473 16.1143 31.7871 18.6334 31.8396 21.2771ZM29.2313 13.2902C29.9185 15.6834 30.3339 18.392 30.3936 21.2771H27.2723C24.516 20.2009 22.3203 18.0049 21.2444 15.2485V12.1279C24.1295 12.1876 26.8381 12.603 29.2313 13.2902ZM30.3907 12.1308C31.8919 12.6091 33.2731 13.1943 34.5009 13.8696C36.0209 14.7056 37.3336 15.6978 38.3417 16.8157C36.5763 10.7368 31.7847 5.94523 25.7058 4.17977C26.8237 5.18795 27.8159 6.50059 28.652 8.02065C29.3272 9.2484 29.9124 10.6296 30.3907 12.1308ZM21.2444 3.49659C23.5261 3.81769 25.6987 5.65108 27.3851 8.7174C27.8743 9.60684 28.3157 10.5895 28.7004 11.6504C26.4072 11.0742 23.8881 10.7344 21.2444 10.6819V3.49659Z" fill="#0D0E0E"/>
</g>
<defs>
<clipPath id="clip0_381_3428">
<rect width="105" height="40" fill="white" transform="translate(0 2)"/>
</clipPath>
</defs>
</svg>
