<svg width="128" height="44" viewBox="0 0 128 44" fill="none" xmlns="http://www.w3.org/2000/svg">
<g clip-path="url(#clip0_381_3414)">
<path d="M42.6346 14.8007C42.4924 15.8324 43.1477 16.6014 44.1687 16.6014C45.1899 16.6014 46.0571 15.8324 46.1993 14.8007C46.3415 13.7691 45.686 13 44.6648 13C43.6438 13 42.7766 13.7691 42.6346 14.8007Z" fill="#1B005E"/>
<path d="M42.6604 17.4456L41.7847 23.8033L44.5845 23.6938L45.4451 17.4456H42.6604Z" fill="#1B005E"/>
<path fill-rule="evenodd" clip-rule="evenodd" d="M35.306 26.9556C37.5147 26.9556 39.3921 25.7556 40.3308 23.938L41.7575 23.9975L41.3837 26.7117H44.1686L44.5265 24.113L46.0029 24.1747L45.108 30.6696H47.8931L48.5776 25.6989C49.0394 26.5242 49.9083 26.9556 51.0039 26.9556C52.4847 26.9556 54.2235 26.1755 55.2628 24.561L56.3294 24.6055C56.5112 26.0081 57.7921 26.9556 59.8245 26.9556C62.1822 26.9556 63.9174 25.6801 64.1811 23.7669C64.4835 21.5723 62.5088 21.2159 61.2164 21.0283L61.1037 21.0107C60.3223 20.8892 59.7259 20.7964 59.7998 20.2592C59.8518 19.8841 60.1793 19.5277 60.866 19.5277C61.4233 19.5277 61.7609 19.7715 61.7759 20.2029H64.4861C64.6604 18.5335 63.4332 17.2018 61.1495 17.2018C58.8658 17.2018 57.2181 18.5148 56.9597 20.3905C56.6525 22.6226 58.6879 22.9415 59.9244 23.1291L59.9926 23.1397L60.0877 23.1543L60.0886 23.1545C60.8449 23.2704 61.4153 23.3578 61.3357 23.9357C61.2815 24.3296 60.9615 24.6297 60.1075 24.6297C59.3464 24.6297 59.0273 24.3859 59.0757 23.8982L39.3665 23.8978L40.3711 23.8585C40.6415 23.3138 40.8286 22.7155 40.9163 22.0787C41.3038 19.2651 39.5458 17.2018 36.6496 17.2018C36.6047 17.2018 36.56 17.2023 36.5154 17.2032L36.5243 17.1972L27.7448 17.1972C27.619 17.1963 27.4996 17.1963 27.3877 17.1972H27.7448C29.9994 17.2127 34.2959 17.5044 33.7431 17.9797C32.2996 18.8279 31.2838 20.3041 31.0394 22.0787C30.6518 24.8923 32.4098 26.9556 35.306 26.9556ZM35.6677 24.3296C36.9302 24.3296 37.9108 23.4105 38.0943 22.0787C38.2778 20.7469 37.5504 19.8278 36.2879 19.8278C35.0254 19.8278 34.0448 20.7469 33.8613 22.0787C33.6779 23.4105 34.4053 24.3296 35.6677 24.3296Z" fill="#1B005E"/>
<path d="M53.3095 22.0787C53.2413 22.5765 53.0613 23.0167 52.7967 23.3727L55.8772 23.2523C55.9833 22.9214 56.0643 22.5679 56.1162 22.1913C56.5269 19.2088 54.7613 17.2018 51.8463 17.2018C49.0432 17.2018 46.708 19.0588 46.2788 22.1725L46.0776 23.6354L49.3047 23.5093C49.0846 23.1318 48.9992 22.6422 49.0767 22.0787C49.2602 20.7469 50.241 19.8278 51.5034 19.8278C52.7659 19.8278 53.4931 20.7469 53.3095 22.0787Z" fill="#1B005E"/>
<path d="M75.0332 25.2877L75.5552 21.4972C75.9664 18.5148 77.8552 17.2018 80.0831 17.2018C81.3825 17.2018 82.4081 17.7082 82.9606 18.6836C83.782 17.7082 84.9287 17.2018 86.2466 17.2018C88.4749 17.2018 90.0019 18.5148 89.5912 21.4972L88.8728 26.7118H86.0877L86.8061 21.4972C86.9769 20.2592 86.4421 19.8278 85.6066 19.8278C84.7896 19.8278 84.1363 20.2592 83.9655 21.4972L83.2472 26.7118H80.4625L81.1809 21.4972C81.3512 20.2592 80.8169 19.8278 79.9999 19.8278C79.1644 19.8278 78.5107 20.2592 78.3403 21.4972L77.6219 26.7118H75.9532L75.9536 26.7129H72.0518C73.6708 26.5455 74.9148 26.0934 75.0305 25.2837L75.0332 25.2877Z" fill="#1B005E"/>
<path d="M69.0918 26.9556C66.3811 26.9556 64.7788 25.38 65.2102 22.2475L65.6979 18.7086C65.7758 17.7944 65.0702 17.6802 63.5137 17.4512H65.8709L65.8718 17.4456H68.6569L67.9953 22.2475C67.7937 23.7105 68.4139 24.3295 69.4536 24.3295C70.4934 24.3295 71.2839 23.7105 71.4855 22.2475L72.1471 17.4456H74.9318L74.2702 22.2475C73.8414 25.3612 71.8025 26.9556 69.0918 26.9556Z" fill="#1B005E"/>
<path d="M21.6649 25.6151C21.4681 25.3953 21.2982 25.1523 21.1574 24.8886L19.1691 24.7781C18.1406 26.1162 16.5251 26.9556 14.6778 26.9556C11.7816 26.9556 10.0236 24.8923 10.4112 22.0787C10.7988 19.2651 13.1252 17.2018 16.0214 17.2018C18.9177 17.2018 20.6757 19.2651 20.2881 22.0787C20.1995 22.7218 20.0096 23.3258 19.7347 23.8748L16.1528 24.0614C16.8502 23.6959 17.3416 22.9823 17.4661 22.0787C17.6496 20.7469 16.9221 19.8278 15.6597 19.8278C14.3973 19.8278 13.4166 20.7469 13.2332 22.0787C13.0958 23.0756 13.4689 23.8414 14.1948 24.1633L11.0518 24.327H25.4222V24.3287C26.6515 24.296 27.6001 23.3863 27.7802 22.0787C27.9636 20.7469 27.2362 19.8278 25.9738 19.8278C24.7113 19.8278 23.7307 20.7469 23.5472 22.0787C23.4589 22.7201 23.5818 23.2659 23.8741 23.6592L20.772 23.8208C20.6588 23.2862 20.6396 22.7008 20.7253 22.0787C21.1129 19.2651 23.4393 17.2018 26.3355 17.2018C29.2317 17.2018 30.9897 19.2651 30.6021 22.0787C30.2278 24.7965 28.0443 26.8143 25.2857 26.9485C25.9354 27.3216 26.879 27.6233 27.5727 27.845C27.8041 27.9191 28.0077 27.9841 28.1632 28.04C28.7931 28.1988 29.1956 28.7919 29.0982 29.4991C28.984 30.328 28.2263 31 27.4059 31H22.9493C21.4925 31 20.4265 29.9407 20.3655 28.543L14.8687 27.9989H20.3916L20.3917 27.9982H25.1442C24.0575 27.5737 22.9093 26.7242 22.171 26.0833C21.987 25.9424 21.8182 25.7861 21.6655 25.6158L21.6649 25.6151Z" fill="#1B005E"/>
<path d="M0 14.4444L2.27482 14.8137L0.635883 26.7117H9.38025L9.76784 23.8981H4.03108L5.33331 14.4443L0 14.4444Z" fill="#1B005E"/>
<path d="M92.0001 16.5446C92.0001 17.1425 91.5251 17.6272 90.9388 17.6272C90.3529 17.6272 89.8779 17.1425 89.8779 16.5446C89.8779 15.9467 90.3529 15.462 90.9388 15.462C91.5251 15.462 92.0001 15.9467 92.0001 16.5446Z" fill="#1B005E"/>
</g>
<defs>
<clipPath id="clip0_381_3414">
<rect width="92" height="18" fill="white" transform="translate(0 13)"/>
</clipPath>
</defs>
</svg>
