<svg width="128" height="44" viewBox="0 0 128 44" fill="none" xmlns="http://www.w3.org/2000/svg">
<g clip-path="url(#clip0_381_3445)">
<path d="M65.5266 5.40847C65.5266 5.45977 65.5266 5.5239 65.5135 5.56238C65.4479 6.06259 65.4479 6.5628 65.4872 7.07584C65.5135 7.2041 65.5397 7.33236 65.6447 7.43497C65.8152 7.62735 66.0775 7.58888 66.1825 7.35801C66.235 7.24258 66.235 7.12714 66.2087 7.01171C66.0775 6.52432 66.0513 6.01129 66.0382 5.51107C66.0382 5.48542 66.0382 5.44694 66.0382 5.40847C66.1825 5.39564 66.3137 5.38281 66.4317 5.38281C66.5236 5.36999 66.6023 5.35716 66.6679 5.31868C66.8646 5.21608 66.8646 4.99804 66.6547 4.89543C66.576 4.85695 66.4711 4.84412 66.3793 4.84412C66.0513 4.85695 65.7234 4.85695 65.3954 4.85695C65.2774 4.85695 65.1593 4.86978 65.0412 4.8826C64.9756 4.89543 64.8969 4.89543 64.8445 4.93391C64.7526 4.97238 64.7002 5.03651 64.7002 5.12629C64.7133 5.21608 64.7526 5.26738 64.8445 5.30586C64.8969 5.34434 64.9625 5.35716 65.0281 5.35716C65.1855 5.36999 65.3561 5.39564 65.5266 5.40847ZM69.134 5.99846C69.134 6.01129 69.1471 6.02411 69.1471 6.02411C69.1996 6.37041 69.2521 6.70389 69.2914 7.03736C69.3046 7.15279 69.3177 7.2554 69.3964 7.34518C69.5669 7.56322 69.8293 7.53757 69.9473 7.30671C69.9998 7.19127 70.0129 7.07584 69.9867 6.94758C69.908 6.5628 69.8686 6.17802 69.7899 5.80607C69.7374 5.5752 69.6719 5.35716 69.6063 5.15195C69.5669 5.02369 69.4751 4.9339 69.3177 4.92108C69.1603 4.89543 69.0422 4.97238 68.9766 5.08782C68.8979 5.19042 68.8323 5.29303 68.7798 5.40847C68.688 5.61368 68.6093 5.8189 68.5044 6.01129C68.4912 6.06259 68.4781 6.10107 68.4519 6.13954C68.4388 6.11389 68.4257 6.10107 68.4257 6.10107C68.2551 5.78042 68.0977 5.45977 67.9272 5.15195C67.9009 5.12629 67.8878 5.10064 67.8747 5.07499C67.796 4.95956 67.7042 4.89543 67.5599 4.89543C67.4287 4.90825 67.3237 4.98521 67.2582 5.10064C67.2319 5.15195 67.2319 5.19042 67.2188 5.24173C67.1663 5.65216 67.1007 6.06259 67.0483 6.47302C67.022 6.70389 67.0089 6.93475 67.0089 7.16562C66.9958 7.21692 67.0089 7.28105 67.0351 7.33236C67.0614 7.43496 67.1401 7.4991 67.245 7.51192C67.3762 7.52475 67.468 7.48627 67.5074 7.38366C67.5467 7.30671 67.5599 7.24258 67.573 7.17845C67.6255 6.94758 67.6648 6.72954 67.7042 6.5115C67.7304 6.38324 67.7435 6.28063 67.7829 6.13954C67.8091 6.19085 67.8353 6.22933 67.8616 6.2678C67.9796 6.42172 68.0977 6.57563 68.242 6.70389C68.3863 6.80649 68.5044 6.79367 68.6224 6.67823C68.6487 6.65258 68.6618 6.63976 68.688 6.6141C68.8061 6.43454 68.9504 6.25498 69.0684 6.07541C69.0947 6.04976 69.1078 6.02411 69.134 5.99846Z" fill="#0D0E0E"/>
<path d="M38.9086 5.66053C38.8174 5.90428 38.8 6.07989 38.8421 6.22585C38.8886 6.42433 39.0093 6.48931 39.1731 6.43883C40.7139 6.0663 44.0926 7.1237 45.3435 7.41841C45.6385 7.48029 45.8785 7.10794 45.6772 6.7741C45.3834 6.4508 42.0062 5.06663 40.7176 4.99116C40.2125 4.96325 39.3095 4.83661 38.9086 5.66053Z" fill="#0D0E0E"/>
<path d="M52.1135 1.17977C52.2777 1.27244 52.3695 1.36084 52.4148 1.45961C52.4823 1.58917 52.4467 1.67881 52.3333 1.72455C51.3148 2.21057 49.9595 4.30298 49.4124 5.02463C49.2798 5.19064 48.9739 5.09417 48.9277 4.82117C48.9372 4.51249 50.1386 2.24176 50.8091 1.62329C51.0726 1.38182 51.5079 0.908026 52.1135 1.17977Z" fill="#0D0E0E"/>
<path d="M44.0022 0.149796C44.1995 0.00441888 44.4045 -0.0465256 44.5092 0.0479512C46.0459 1.3329 46.8608 3.36773 47.3654 5.23057C47.3844 5.27397 47.3856 5.33625 47.3704 5.40122C47.3641 5.45675 47.3226 5.51541 47.2567 5.5608C47.1863 5.61091 47.1257 5.62617 47.0972 5.58299C46.4237 4.68732 42.577 1.20242 44.0022 0.149796Z" fill="#0D0E0E"/>
<path d="M11.461 22.4277C11.8293 22.1596 12.2297 21.9364 12.6534 21.7632C13.0967 21.6393 13.5692 21.6598 13.9995 21.8218C14.4297 21.9838 14.7944 22.2783 15.0382 22.6609C15.2563 23.0425 15.3416 23.4831 15.2814 23.9163C15.2212 24.3494 15.0187 24.7517 14.7043 25.0626C14.4606 25.3146 14.1839 25.5341 13.8816 25.7155C12.5342 26.5666 11.1748 27.371 9.81547 28.2221C9.53732 28.4351 9.24225 28.6262 8.93308 28.7934C8.46281 29.0227 7.92537 29.0841 7.41368 28.967C6.902 28.85 6.44826 28.5617 6.13092 28.1522C5.89369 27.8622 5.69348 27.5451 5.53471 27.2078C4.24691 24.5613 2.91142 21.9264 1.67131 19.2332C1.09895 18.0674 0.633913 16.7266 0.180798 15.4325C-0.0152406 15.0565 -0.0535225 14.6206 0.0741037 14.2174C0.20173 13.8142 0.485195 13.4756 0.864201 13.2736C1.24321 13.0716 1.68785 13.0222 2.10357 13.1358C2.51929 13.2494 2.87329 13.5171 3.09027 13.8819C3.75722 14.7485 4.34761 15.669 4.85504 16.6334C6.14284 18.9651 7.37103 21.2968 8.61113 23.5586C8.68334 23.6836 8.76296 23.8042 8.84961 23.92C9.783 23.5363 10.6609 23.0346 11.461 22.4277Z" fill="#0D0E0E"/>
<path d="M24.7761 21.6142C21.8309 24.9835 16.8943 24.1324 14.4141 19.7954C12.6493 16.7175 12.3393 11.6343 16.1789 8.42819C16.9988 7.75696 17.9792 7.29971 19.0287 7.09909C20.3155 6.91872 21.6277 7.14068 22.7777 7.73326C23.9277 8.32584 24.8567 9.2587 25.432 10.3985C27.5306 14.1293 27.2325 18.886 24.7761 21.6142ZM23.5837 13.7562C23.2708 12.8394 22.6431 12.0567 21.807 11.541C21.3339 11.2113 20.759 11.051 20.1792 11.0871C19.5993 11.1232 19.0499 11.3535 18.6233 11.7392C16.9182 13.2199 16.5604 16.7292 17.8005 18.8161C17.9586 19.1564 18.1907 19.4588 18.4808 19.7022C18.7709 19.9456 19.1119 20.1241 19.4799 20.2251C19.8479 20.3262 20.234 20.3474 20.6113 20.2873C20.9886 20.2271 21.3478 20.0871 21.664 19.877C22.5883 19.1763 23.2664 18.2115 23.604 17.1167C23.9417 16.0218 23.9221 14.8513 23.548 13.7679L23.5837 13.7562Z" fill="#0D0E0E"/>
<path d="M36.7954 15.2252C36.4939 15.2886 36.1824 15.2924 35.8793 15.2363C35.5763 15.1802 35.2877 15.0655 35.0307 14.8988C34.8058 14.773 34.6122 14.6001 34.4638 14.3924C34.3155 14.1847 34.2161 13.9475 34.1728 13.6977C34.1294 13.448 34.1433 13.192 34.2132 12.9481C34.2832 12.7042 34.4077 12.4785 34.5776 12.2872C34.8736 11.9028 35.2938 11.6276 35.77 11.5061C37.0133 11.1533 38.2932 10.9382 39.5857 10.8649C39.8697 10.8326 40.1574 10.8561 40.4319 10.934C40.7065 11.012 40.9623 11.1427 41.1845 11.3187C41.4066 11.4946 41.5906 11.7122 41.7256 11.9586C41.8605 12.205 41.9438 12.4753 41.9705 12.7536C42.3431 14.1206 42.3839 15.5539 42.0897 16.9391C41.0166 21.416 37.3201 22.9549 33.1705 21.5209C32.0057 21.1375 30.9844 20.4231 30.2372 19.469C29.2406 18.32 28.534 16.9583 28.1743 15.4934C27.8829 14.1889 27.9148 12.8353 28.2675 11.5454C28.6201 10.2555 29.2832 9.06676 30.2014 8.07846C31.0728 7.00429 32.2038 6.15892 33.4925 5.61847C34.3068 5.17962 35.2597 5.05484 36.1635 5.26871C36.3685 5.32419 36.5546 5.43229 36.7025 5.5818C36.8504 5.73132 36.9547 5.91679 37.0046 6.119C37.0545 6.3212 37.0481 6.53277 36.9862 6.73177C36.9242 6.93076 36.809 7.10993 36.6524 7.25069C36.3546 7.51424 36.0311 7.74854 35.6865 7.95021C34.6264 8.61028 33.7039 9.46083 32.9678 10.4568C32.4853 11.1013 32.153 11.8414 31.9944 12.6249C31.8357 13.4084 31.8546 14.2164 32.0497 14.9921C32.3201 16.0497 32.9202 16.999 33.7667 17.7085C36.39 20.0403 39.8003 17.7901 39.2041 14.6073C38.3337 14.8172 37.5705 15.0387 36.7954 15.2252Z" fill="#0D0E0E"/>
<path d="M52.8215 21.8007C48.9462 24.1325 44.5343 21.8007 43.5684 16.9041C42.8649 13.4065 44.2004 8.50979 48.8747 6.6444C49.8692 6.25605 50.9479 6.1197 52.0107 6.248C53.2876 6.47655 54.459 7.09118 55.3596 8.00525C56.2602 8.91931 56.8448 10.0867 57.0307 11.3429C57.8177 15.505 56.0291 19.947 52.8215 21.8007ZM54.169 13.9544C54.1678 12.9859 53.8174 12.0487 53.1793 11.3079C52.8382 10.8497 52.3451 10.5214 51.7841 10.3789C51.223 10.2365 50.6289 10.2887 50.1028 10.5268C48.0042 11.4128 46.5256 14.6306 47.0622 16.9974C47.1032 17.3688 47.2266 17.727 47.4239 18.0469C47.6212 18.3668 47.8876 18.6407 48.2045 18.8495C48.5213 19.0582 48.881 19.1968 49.2583 19.2555C49.6357 19.3141 50.0216 19.2915 50.389 19.1892C51.4983 18.8103 52.4588 18.1022 53.1364 17.1637C53.8141 16.2252 54.1751 15.1032 54.169 13.9544Z" fill="#0D0E0E"/>
<path d="M60.9498 22.7802C60.8913 23.2069 60.6619 23.5934 60.3119 23.8547C59.9619 24.1159 59.5201 24.2306 59.0837 24.1734C58.6473 24.1162 58.252 23.8918 57.9848 23.5496C57.7175 23.2075 57.6003 22.7755 57.6588 22.3488C57.7173 21.9221 57.9468 21.5356 58.2967 21.2743C58.6467 21.013 59.0885 20.8984 59.5249 20.9556C59.9613 21.0128 60.3566 21.2371 60.6239 21.5793C60.8911 21.9215 61.0084 22.3535 60.9498 22.7802ZM59.9124 7.05253C60.1392 6.71388 60.4719 6.45598 60.8609 6.31731C61.2498 6.17864 61.6742 6.16662 62.0707 6.28305C62.4738 6.38166 62.8299 6.61267 63.0796 6.9374C63.3292 7.26214 63.4571 7.66088 63.442 8.06684C63.3894 8.71801 63.2898 9.36473 63.1439 10.0022C62.7504 12.1591 62.3688 14.3159 61.9515 16.4495C61.7607 17.3006 61.5103 18.1167 61.236 18.9794C61.1406 19.2491 60.9812 19.4928 60.771 19.6906C60.6403 19.8394 60.4734 19.9535 60.2856 20.0224C60.0978 20.0914 59.8953 20.1129 59.6968 20.085C59.4983 20.0571 59.3101 19.9807 59.1498 19.8629C58.9895 19.745 58.8622 19.5895 58.7797 19.4108C58.6379 19.0902 58.5609 18.7457 58.5531 18.3965C58.5531 16.9508 58.5531 15.4935 58.6485 14.0361C58.8106 11.9563 59.1294 9.89093 59.6024 7.85697C59.6581 7.58447 59.763 7.32388 59.9124 7.0875V7.05253Z" fill="#0D0E0E"/>
<path fill-rule="evenodd" clip-rule="evenodd" d="M6.42312 32.1488C6.28233 32.4561 6.24372 32.7987 6.31252 33.1284C6.35829 33.563 6.45882 33.9905 6.61182 34.4011C6.80284 34.9039 7.01659 35.4011 7.28015 36.0139C7.34076 36.1549 7.4041 36.3021 7.47038 36.457C7.8258 37.2872 8.27176 38.3482 8.86661 39.8837C9.03498 40.3199 9.18449 40.7597 9.33505 41.2025C9.39587 41.3814 9.45691 41.5609 9.51939 41.7408C9.74335 42.3804 10.1287 42.955 10.6395 43.4104C10.8564 43.6607 11.1441 43.8431 11.4667 43.9343C11.7956 44.0273 12.1454 44.0214 12.4708 43.9174C12.7962 43.8133 13.082 43.6159 13.2911 43.3508C13.4961 43.0909 13.618 42.7777 13.6417 42.4505C13.7747 41.8131 13.7293 41.1522 13.5101 40.5377C13.1622 39.5174 12.7659 38.4956 12.3089 37.4962L12.3068 37.4918C11.555 35.9282 10.7908 34.3754 9.99045 32.822L9.98446 32.8111C9.75016 32.4064 9.44567 32.0446 9.08467 31.742C8.85031 31.4719 8.52704 31.2897 8.17004 31.2269C7.80543 31.1628 7.42939 31.2274 7.10905 31.4093C6.80601 31.5785 6.56579 31.8374 6.42312 32.1488Z" fill="#0D0E0E"/>
<path fill-rule="evenodd" clip-rule="evenodd" d="M17.9059 28.2986C16.7271 28.0001 15.496 27.9566 14.2984 28.1712C13.3708 28.2605 12.4585 28.4697 11.825 28.8841C11.5028 29.095 11.2423 29.3658 11.0974 29.71C10.9517 30.0561 10.9331 30.4519 11.0525 30.8929C11.2705 31.7007 11.5536 32.4861 11.8357 33.269L11.8814 33.3958L11.8825 33.3986C12.7319 35.673 13.5894 37.9397 14.4547 40.1986C14.5556 40.5546 14.6983 40.898 14.8799 41.2219L14.8833 41.2279C15.1232 41.6303 15.4309 41.9902 15.7934 42.2925C15.9747 42.4587 16.1989 42.5737 16.442 42.6251C16.6875 42.6769 16.9428 42.6619 17.1801 42.5815C17.4175 42.5012 17.6277 42.3587 17.7879 42.1695C17.9455 41.9834 18.0487 41.7592 18.0866 41.5206C18.243 40.8724 18.1929 40.1929 17.9429 39.5733C17.8649 39.3648 17.8037 39.1517 17.7392 38.9274C17.7177 38.8526 17.6959 38.7765 17.6729 38.699C19.6536 37.942 21.7611 36.9241 22.5022 34.5561C22.7924 33.7378 22.8166 32.8517 22.5714 32.0193C22.326 31.186 21.8225 30.4474 21.1303 29.9052C20.1882 29.1462 19.0877 28.5978 17.9059 28.2986ZM14.6384 31.2031C14.6774 31.1921 14.7167 31.1819 14.7561 31.1724C16.0456 30.9742 17.3649 31.2383 18.4711 31.9159C18.9586 32.2474 19.1583 32.6157 19.1926 32.9701C19.228 33.335 19.0923 33.7304 18.8197 34.1105C18.3046 34.8285 17.3646 35.4032 16.5155 35.5103C15.8965 34.1165 15.2679 32.6663 14.6384 31.2031Z" fill="#0D0E0E"/>
<path d="M25.7647 25.7473C27.1685 25.1134 28.9074 25.0039 30.2681 25.4496C30.6108 25.5472 30.9081 25.7583 31.1092 26.0468C31.309 26.3335 31.4012 26.679 31.3704 27.0244C31.3684 27.2486 31.3121 27.4692 31.2062 27.6682C31.0984 27.8708 30.9423 28.045 30.7511 28.1762C30.5599 28.3073 30.3392 28.3916 30.1077 28.4217C29.8761 28.4519 29.6406 28.4271 29.4209 28.3494L29.4042 28.3435L29.3885 28.3354C29.2761 28.2779 29.1567 28.2346 29.0332 28.2064L29.0254 28.2047C28.0682 27.9561 27.1653 28.368 26.8355 28.8741C26.6782 29.1154 26.6587 29.359 26.7897 29.5806C26.93 29.8179 27.2741 30.0842 27.9704 30.274C28.1619 30.3254 28.3582 30.375 28.5573 30.4254C29.1079 30.5648 29.6801 30.7096 30.2334 30.9103L30.2355 30.9111C32.7881 31.8607 33.7386 33.8274 33.4132 35.6772C33.0913 37.5065 31.5288 39.1713 29.1791 39.564C28.3241 39.7493 27.4343 39.7132 26.5978 39.4593C25.7592 39.2046 25.0033 38.7399 24.4052 38.1111L24.3896 38.0947C24.2008 37.8578 24.0738 37.5795 24.0175 37.2842C23.9657 37.0177 23.993 36.7423 24.096 36.4904C24.1984 36.24 24.3716 36.0233 24.5951 35.8654C24.8312 35.6864 25.1158 35.579 25.4137 35.5566C25.7106 35.5343 26.0077 35.5974 26.2684 35.738C26.5288 35.861 26.771 36.0179 26.9884 36.2045L26.9925 36.2079C27.3771 36.5518 27.8424 36.6414 28.2886 36.5584C28.7413 36.4742 29.167 36.2123 29.4408 35.8648C29.7128 35.5195 29.822 35.1093 29.6924 34.7111C29.562 34.31 29.1699 33.8606 28.3084 33.4849C28.0832 33.3914 27.8497 33.316 27.6068 33.2426C27.5413 33.2228 27.4747 33.2031 27.4073 33.1831C27.2277 33.1298 27.0429 33.0749 26.8617 33.0144C26.7369 32.9728 26.6131 32.9334 26.4905 32.8943C26.1554 32.7876 25.8287 32.6836 25.5143 32.5441C24.83 32.3163 24.2388 31.8789 23.8287 31.2966C23.4169 30.712 23.2097 30.0129 23.2379 29.3037C23.2401 27.5754 24.3534 26.3847 25.7647 25.7473Z" fill="#0D0E0E"/>
<path d="M43.5621 25.5632C43.2899 25.4332 42.9889 25.3715 42.6863 25.3836C42.3836 25.3958 42.0888 25.4814 41.8285 25.6329C41.5698 25.7833 41.3532 25.9939 41.198 26.246C41.0557 26.4583 40.9572 26.6957 40.9081 26.945C40.859 27.1941 40.8602 27.4501 40.9115 27.6986C40.9622 28.018 41.0184 28.3286 41.0739 28.6349C41.1658 29.1418 41.2552 29.6373 41.3142 30.1425L41.3164 30.1553C41.4507 30.9476 41.521 31.7489 41.5273 32.5519L41.5279 32.5633C41.5738 33.4305 41.2716 34.2808 40.6861 34.9338L40.6768 34.9454C40.4863 35.1841 40.2316 35.3663 39.9411 35.4716C39.6507 35.5769 39.3361 35.6011 39.0324 35.5415C38.7287 35.4819 38.448 35.3409 38.2216 35.1342C37.9952 34.9275 37.8319 34.6625 37.7504 34.3704C37.5764 33.7547 37.4757 33.1214 37.4501 32.4832L37.7473 27.8569C37.7517 27.7965 37.7567 27.7345 37.7618 27.6719C37.7731 27.5314 37.7847 27.3883 37.7895 27.2548C37.7965 27.0584 37.7905 26.8564 37.7437 26.6652C37.6958 26.4698 37.6047 26.2839 37.4431 26.1256C37.2831 25.9689 37.0671 25.8533 36.7953 25.7746C36.3038 25.6355 35.8882 25.6399 35.5419 25.7836C35.1954 25.9273 34.958 26.1941 34.79 26.5023C34.6233 26.8079 34.5162 27.1697 34.4352 27.5321C34.3751 27.801 34.3268 28.0833 34.2809 28.352C34.265 28.4446 34.2495 28.5355 34.2338 28.6238L34.2334 28.6264C33.9878 30.1 33.9147 31.5962 34.0155 33.086C34.0343 33.8911 34.206 34.6858 34.522 35.4295C34.8785 36.3891 35.5242 37.2205 36.3739 37.814C37.2254 38.4087 38.2415 38.7364 39.2877 38.7537C40.3339 38.771 41.3608 38.4771 42.2324 37.911C43.1026 37.3457 43.777 36.5355 44.1664 35.5876C44.7111 34.3801 44.9669 33.0669 44.9141 31.7481C44.8821 30.7853 44.8285 29.8151 44.7752 28.8498C44.749 28.3763 44.7229 27.9038 44.6995 27.4342C44.6877 26.9633 44.5289 26.5072 44.2443 26.1271C44.0682 25.8868 43.8338 25.693 43.5621 25.5632Z" fill="#0D0E0E"/>
<path d="M53.196 32.8173C53.1684 32.8516 53.1393 32.8871 53.1089 32.924C52.8875 31.6752 52.6823 30.4268 52.4768 29.1765C52.4031 28.7279 52.329 28.2774 52.2545 27.8282L52.2461 27.7781L52.2189 27.7348C52.1676 27.6533 52.1625 27.5734 52.1625 27.403V27.3833L52.1594 27.3638C52.1038 27.0119 51.941 26.6844 51.6923 26.4242C51.4443 26.1647 51.1222 25.9841 50.7679 25.9057C50.4142 25.8204 50.0425 25.8392 49.6996 25.9598C49.3576 26.0801 49.0595 26.2963 48.8425 26.5813C48.6621 26.8 48.5142 27.0426 48.4034 27.3018C48.1519 27.8602 47.8982 28.42 47.6438 28.9813L47.6394 28.991C47.0043 30.3923 46.3649 31.803 45.7441 33.2248L45.7422 33.2294C45.3611 34.1513 45.0465 35.1227 44.733 36.0911C44.6704 36.2844 44.6078 36.4776 44.5447 36.6703C44.4315 36.9759 44.382 37.3005 44.399 37.625C44.3784 37.9155 44.4495 38.2053 44.6029 38.4552C44.7593 38.7102 44.9936 38.9108 45.2727 39.0289C45.5685 39.1557 45.8992 39.1826 46.2125 39.1054C46.5251 39.0283 46.8027 38.8519 47.0016 38.6039C47.2556 38.2984 47.4741 37.9652 47.6523 37.6122C48.1782 36.5604 48.6808 35.4958 49.1811 34.4358C49.3747 34.0258 49.5628 33.6586 49.7768 33.2587C49.7915 33.308 49.8065 33.3561 49.822 33.4043C50.0463 34.3698 50.4249 35.2946 50.9438 36.1448C51.042 36.3249 51.1788 36.4823 51.3448 36.6062C51.5128 36.7316 51.7067 36.8196 51.913 36.8643C52.1193 36.909 52.3331 36.9092 52.5395 36.8649C52.7456 36.8207 52.9401 36.7326 53.1082 36.6078L53.4409 36.3643L56.0232 34.2376L55.8705 35.1891C55.6609 36.497 55.4529 37.794 55.2319 39.0913C55.0873 39.6663 55.0875 40.2669 55.2325 40.8417C55.2953 41.1652 55.4553 41.463 55.6921 41.6972C55.9309 41.9333 56.2367 42.0937 56.5699 42.1577C56.9031 42.2216 57.2483 42.1862 57.5606 42.0559C57.8684 41.9276 58.1302 41.713 58.3132 41.4395C58.739 40.923 59.004 40.2977 59.0768 39.638C59.1864 38.7064 59.3102 37.7621 59.4341 36.8181C59.5768 35.73 59.7195 34.6422 59.84 33.5753L59.8404 33.572C59.9564 32.4041 60.0125 31.2314 60.0086 30.058C60.034 29.6872 59.9396 29.3178 59.7384 29.0021C59.5365 28.6853 59.2375 28.439 58.8841 28.2981C58.5165 28.1347 58.105 28.091 57.7101 28.1736C57.3178 28.2556 56.9627 28.4578 56.6963 28.7507C56.22 29.1814 55.7732 29.6423 55.3587 30.1304L55.3559 30.1337C54.9034 30.685 54.454 31.2471 54.0075 31.8056C53.736 32.1451 53.4653 32.4838 53.196 32.8173Z" fill="#0D0E0E"/>
</g>
<defs>
<clipPath id="clip0_381_3445">
<rect width="70" height="44" fill="white"/>
</clipPath>
</defs>
</svg>
