<svg
  viewBox="0 0 24 25"
  fill="none"
  xmlns="http://www.w3.org/2000/svg"
>
  <path
    d="M13.0281 2.50098C14.1535 2.50284 14.7238 2.50879 15.2166 2.52346L15.4107 2.52981C15.6349 2.53778 15.8561 2.54778 16.1228 2.56028C17.1869 2.60944 17.9128 2.77778 18.5503 3.02528C19.2094 3.27944 19.7661 3.62278 20.3219 4.17861C20.8769 4.73444 21.2203 5.29278 21.4753 5.95028C21.7219 6.58694 21.8903 7.31361 21.9403 8.37778C21.9522 8.64444 21.9618 8.86564 21.9697 9.08989L21.976 9.28397C21.9906 9.77672 21.9973 10.3471 21.9994 11.4725L22.0002 12.2182C22.0003 12.3093 22.0003 12.4033 22.0003 12.5003L22.0002 12.7824L21.9996 13.5281C21.9977 14.6535 21.9918 15.2238 21.9771 15.7166L21.9707 15.9107C21.9628 16.1349 21.9528 16.3561 21.9403 16.6228C21.8911 17.6869 21.7219 18.4128 21.4753 19.0503C21.2211 19.7094 20.8769 20.2661 20.3219 20.8219C19.7661 21.3769 19.2069 21.7203 18.5503 21.9753C17.9128 22.2219 17.1869 22.3903 16.1228 22.4403C15.8561 22.4522 15.6349 22.4618 15.4107 22.4697L15.2166 22.476C14.7238 22.4906 14.1535 22.4973 13.0281 22.4994L12.2824 22.5002C12.1913 22.5003 12.0973 22.5003 12.0003 22.5003L11.7182 22.5002L10.9725 22.4996C9.8471 22.4977 9.27672 22.4918 8.78397 22.4771L8.58989 22.4707C8.36564 22.4628 8.14444 22.4528 7.87778 22.4403C6.81361 22.3911 6.08861 22.2219 5.45028 21.9753C4.79194 21.7211 4.23444 21.3769 3.67861 20.8219C3.12278 20.2661 2.78028 19.7069 2.52528 19.0503C2.27778 18.4128 2.11028 17.6869 2.06028 16.6228C2.0484 16.3561 2.03871 16.1349 2.03086 15.9107L2.02457 15.7166C2.00994 15.2238 2.00327 14.6535 2.00111 13.5281L2.00098 11.4725C2.00284 10.3471 2.00879 9.77672 2.02346 9.28397L2.02981 9.08989C2.03778 8.86564 2.04778 8.64444 2.06028 8.37778C2.10944 7.31278 2.27778 6.58778 2.52528 5.95028C2.77944 5.29194 3.12278 4.73444 3.67861 4.17861C4.23444 3.62278 4.79278 3.28028 5.45028 3.02528C6.08778 2.77778 6.81278 2.61028 7.87778 2.56028C8.14444 2.5484 8.36564 2.53871 8.58989 2.53086L8.78397 2.52457C9.27672 2.50994 9.8471 2.50327 10.9725 2.50111L13.0281 2.50098ZM12.0003 7.50028C9.23738 7.50028 7.00028 9.73981 7.00028 12.5003C7.00028 15.2632 9.23981 17.5003 12.0003 17.5003C14.7632 17.5003 17.0003 15.2607 17.0003 12.5003C17.0003 9.73738 14.7607 7.50028 12.0003 7.50028ZM12.0003 9.50028C13.6572 9.50028 15.0003 10.8429 15.0003 12.5003C15.0003 14.1572 13.6576 15.5003 12.0003 15.5003C10.3434 15.5003 9.00028 14.1576 9.00028 12.5003C9.00028 10.8434 10.3429 9.50028 12.0003 9.50028ZM17.2503 6.00028C16.561 6.00028 16.0003 6.56018 16.0003 7.24943C16.0003 7.93867 16.5602 8.49944 17.2503 8.49944C17.9395 8.49944 18.5003 7.93954 18.5003 7.24943C18.5003 6.56018 17.9386 5.99941 17.2503 6.00028Z"
    fill="currentColor"
  />
</svg>
