<svg width="3732pt" height="626pt" version="1.0" viewBox="0 0 3732 626" xml:space="preserve" xmlns="http://www.w3.org/2000/svg"><g fill="#fff"><path d="m1308.5 325.5v188.5h62.4l0.7-5.8c0.4-3.1 0.4-55.3 0.1-115.9-0.5-72.3-0.3-110.4 0.3-110.8 1.6-1 29.3 26 82.1 79.8 57.8 58.9 149.5 150.4 152.4 152.1 1.4 0.8 10.4 1 31.5 0.6l29.5-0.5v-373h-61.5v124c0 68.2 0.3 131.8 0.7 141.2 0.4 12.4 0.3 17.3-0.5 17.3-1.5 0-21-18.1-49.7-46.1-13.2-12.9-29.4-28.6-36-34.9s-22.8-22-36-34.9-31-30.3-39.5-38.6c-8.5-8.2-28.3-27.6-44-42.9-43.1-42.2-91.4-88.6-92.1-88.6-0.2 0-0.4 84.8-0.4 188.5z"/><path d="m863.5 139.7c-37.5 4.4-65.1 12-93.3 25.4-42.7 20.5-74.5 51-94 90.4-12.3 25-17.2 45-17.2 71.3-0.1 18.6 2.4 33.5 8.4 51.2 20.5 59.7 64.5 100.1 135 123.5 24.8 8.2 45.1 11.5 76.6 12.2 45.4 1 76.6-4.5 114.2-20.3 28.1-11.8 49.8-26.4 69.9-47 20.7-21.4 30.7-36.3 42.4-63.4 9-21.1 12-34.9 12-56 0-20.4-2.2-31.2-11.2-54.5-13-33.7-41.6-67.7-76.3-90.7-15.2-10-41.7-22.7-56-26.8-2.5-0.7-5.6-1.6-7-2.1-11.1-3.7-40.3-9.8-59.8-12.4-10.1-1.3-35.4-1.8-43.7-0.8zm53.5 54.7c21.1 4.2 33.1 8.1 48.4 15.8 19.8 9.8 36.5 23.3 51.5 41.4 15.4 18.6 24.7 39.4 28.1 62.9 4.7 33.2-9.6 71-37.5 99-19.7 19.8-43.9 33.7-74.7 43.1-21.8 6.6-47.7 8.9-66.8 5.8-5.2-0.8-12-1.9-15-2.4-11.6-1.9-35.2-10.3-46.8-16.6-36.1-19.8-61.5-48.7-73.1-83.2-3.3-9.6-6.1-25.2-6.1-33.6 0-10.4 3.7-27.5 8.7-40 7.1-17.9 16.3-31.7 30.8-46.1 26.7-26.5 65.1-43.9 106-47.9 8.5-0.8 39.3 0.4 46.5 1.8z"/><path d="m288.1 141.1c-12.9 1.2-27.4 4.3-41.6 9-20.5 6.9-38.6 18-51.4 31.4-8.5 9-12.3 14.5-17.3 25.1-12.7 27.2-11.8 57.7 2.4 84.4 6 11.2 9.4 15.8 17.2 23.4 17.4 17.1 46.2 30.7 75.1 35.6 9.6 1.6 16.7 2 35 2 17.6 0.1 25.4 0.5 33.5 1.9 29 5 48.9 21.2 55 44.6 3.3 12.9-1.8 29.7-12.7 42-10.2 11.5-32.9 22.6-52 25.4-27.6 4.1-59-4.4-77.6-21-5.6-5-14.1-15.8-17.1-21.7-0.9-1.7-2.1-3.2-2.7-3.2-1.5 0-50.6 29.7-54.1 32.7-1.5 1.4-1.2 2.1 4.4 9.1 13.9 17.5 17.8 21.1 34.5 31.3 15.5 9.4 35.2 16.1 58.3 19.6 16.7 2.5 65 2.5 80.5-0.1 18-2.9 29.8-6.4 43.4-12.7 36.5-17 61-49.8 63.7-85.4 2-24.8-10.4-54-31-73.2-28.5-26.5-65.5-38.3-119.8-38.3-13.4 0-20.6-0.4-25.5-1.6-17.3-4-31.8-12.2-40.7-23-5.9-7.2-8.9-13-11.2-21.7-2.3-8.6-1.1-18.9 3.5-28 10.4-21 32-33.1 65.8-36.9 29.4-3.2 62.2 7 77.6 24.1 3.7 4.1 11.1 14.9 11.9 17.3 0.3 0.7 2.9-0.2 6.8-2.3 7.5-3.9 49.4-31.6 49.8-32.8 0.4-1.3-8.9-12-14.8-17.1-21.1-18.1-41.8-28.2-72.5-35.4-22.3-5.2-49.8-6.9-76.4-4.5z"/><path d="m2429 167c0 20.9 0.3 27 1.3 27.1 0.6 0.1 26.1 0 56.4-0.1l55.3-0.2 0.2 159.8 0.3 159.9 32-0.4c17.6-0.2 32.2-0.5 32.4-0.7s0.6-71.6 0.9-158.6c0.3-114.7 0.8-158.5 1.6-159 0.6-0.4 26-0.8 56.4-0.8h55.2v-26.4c0-23.1-0.2-26.5-1.6-27-0.9-0.3-66.6-0.6-146-0.6h-144.4z"/><path d="m3098.1 143.2c-1.1 2.8-8.2 18.1-16.4 35.3-3.4 7.1-32.6 65.9-64.8 130.5-60.4 121-72.9 146.2-72.9 147.2 0 0.3 3.7-1.3 8.3-3.6 8.9-4.5 21-10.2 52.4-24.6l20.2-9.3 13.7-27.6c7.5-15.2 18.8-38.6 25.1-52.1 6.4-13.5 16.7-35.2 22.9-48.4 6.3-13.1 11.4-24.2 11.4-24.6s0.9-1.5 1.9-2.4c1.8-1.6 2-1.6 3.5 0.6 0.9 1.2 1.6 2.6 1.6 2.9 0 0.4 1.6 4.2 3.5 8.3 1.9 4.2 3.5 7.8 3.5 8s2.7 6 5.9 12.8 8.1 17.6 10.9 23.9c5.3 12.2 9.2 20.8 15 33.2 4 8.6 4.1 8.6 11.7 5.2 1.7-0.7 12.3-5.3 23.8-10.1 11.4-4.8 20.7-9.2 20.7-9.7 0-0.6-11.1-22.9-24.7-49.6-25.4-50.1-59.6-118.4-68.6-137.4-2.9-5.9-5.7-10.7-6.5-10.7-0.7 0-1.6 1-2.1 2.2z"/><path d="m2046.2 143.2c-0.7 0.7-1.2 1.6-1.2 2 0 2.2-96.8 196.7-128 257.3-11 21.3-35.4 70.2-40.8 81.5-6.1 13.1-13.2 29-13.2 29.6 0 0.2 14.1 0.4 31.3 0.4 28.6 0 31.5-0.2 32.9-1.8 0.9-0.9 4.7-7.3 8.6-14.2l7-12.5 104.8-0.5c92.5-0.4 105.1-0.3 106.5 1 0.9 0.8 3.8 5.8 6.5 11 2.6 5.2 5.8 11.2 7.1 13.3l2.3 3.7 31.8-0.2c31.1-0.3 31.7-0.3 31.4-2.3-0.4-2.1-76.1-154.2-109.3-219.5-11.1-21.7-29.6-58.4-41.1-81.5s-24-48-27.6-55.3c-3.6-7.2-6.9-13.2-7.2-13.2s-1.1 0.5-1.8 1.2zm6.9 127.9c2 4.1 5.3 11 7.2 15.4s4.9 10.9 6.5 14.5c1.7 3.6 6.9 15 11.7 25.4 4.7 10.4 14.2 30.7 21 45.1s13.7 29.1 15.3 32.6c1.7 3.5 5.7 12.2 9.1 19.2 3.4 7.1 6.1 13.1 6.1 13.5s-37 0.6-82.2 0.4c-61.1-0.2-82.4-0.6-82.9-1.4-0.4-0.7 0-2.3 1-3.7 1-1.5 3.9-6.9 6.4-12.1s9.1-19 14.7-30.5c9.9-20.4 16.1-33.2 26-54 2.6-5.5 7.5-15.8 10.9-22.8 3.3-7.1 6.1-13 6.1-13.2 0-0.1 2-4.5 4.4-9.6 2.4-5.2 5.8-12.8 7.6-16.9 5.6-12.5 6-12.5 11.1-1.9z"/></g><path d="m3374 330c-24.2 3.5-41.5 7.1-59.5 12.4s-47 15.3-52.2 17.9c-1.8 1-3.6 1.7-4.2 1.7-0.5 0-3.8 1.3-7.3 2.9s-12.4 5.5-19.8 8.6c-7.4 3.2-14.4 6.4-15.5 7.2-1.1 0.7-2.5 1.3-3.2 1.3s-4.6 1.6-8.7 3.5-7.7 3.5-8 3.5-4.7 2-9.8 4.4c-9.3 4.3-15.9 7.4-27.3 12.6-3.3 1.5-11.6 5.4-18.5 8.7s-14.1 6.7-16 7.6c-1.9 0.8-6.6 3-10.5 4.7-23 10.5-21.5 9.9-39 17.5-7.1 3.1-14.8 6.5-17 7.5s-6.2 2.7-9 3.8c-2.7 1.1-9 3.6-14 5.6-4.9 2-9.4 3.6-9.8 3.6-0.5 0-3.6 1.1-7 2.4-7.2 2.7-22 7.3-25.7 7.9-1.4 0.3-6.8 1.4-12 2.5-10.1 2.2-32.9 4.2-47.9 4.2-5 0-9.1 0.3-9.1 0.8 0 1.2 14.4 6.8 35 13.4 5.2 1.7 10.4 3.4 11.5 3.8 4.6 1.7 9.4 3 14.1 4 2.7 0.6 6.7 1.5 8.9 2.1 4.6 1.1 23.9 4.2 36.5 5.9 9.7 1.4 71.2 0.7 82-0.8 21.9-3.1 35-5.8 50-10.3s23.9-7.3 30-9.5c3.6-1.3 7.3-2.4 8.2-2.4s1.9-0.4 2.2-0.9 1.7-1.2 3.1-1.5c1.4-0.4 5.5-2 9.1-3.6 3.5-1.7 6.8-3 7.2-3s3.4-1.4 6.7-3 6.4-3 6.8-3c0.8 0 27.8-12.8 33.2-15.7 3.5-2 4.2-2.3 12-5.8 3.3-1.5 7.4-3.4 9-4.3 3.8-2 3-1.6 23-11.3 15.4-7.4 26.8-12.8 44-20.9 3.3-1.5 11.8-5.5 18.8-8.9 7.1-3.4 13-6.1 13.2-6.1 0.3 0 2.8-1.1 5.7-2.4 9.5-4.2 19.2-8.4 24.8-10.6 3-1.2 8-3.3 11.1-4.6s6.2-2.4 6.8-2.4 1.9-0.4 2.9-0.9c2.6-1.5 20.3-7.9 23.7-8.7 1.7-0.4 3.5-1 4-1.4 0.6-0.3 3-1.2 5.5-1.9 2.5-0.8 7.7-2.3 11.5-3.6 19.9-6.3 34.3-9.2 50.5-10 4-0.2 7.4-0.6 7.7-0.8 0.9-1-11.1-6.2-19.2-8.3-1.1-0.3-2.9-0.9-4-1.3-6.9-2.7-18.7-6.1-20.8-6.1-1.4 0-2.8-0.4-3.2-0.9-0.3-0.6-2.7-1.3-5.3-1.7-2.6-0.3-5.1-1-5.7-1.4-0.5-0.4-2.8-1-5-1.4-2.2-0.3-8.3-1.3-13.5-2.2-14.9-2.6-74.2-2.8-91-0.4z" fill="#235be3"/><path d="m3530.5 391.5c-15.9 1.7-22.2 2.9-40.5 7.5-9.7 2.4-21.7 6.1-32 9.7-18.9 6.7-22.1 8-31.3 12.3-4.9 2.2-11 4.9-13.6 5.9-4.9 2-40.9 19.7-62 30.5-11.5 6-17 9.6-14.4 9.6 0.6 0 9.1-2.6 18.9-5.9 20.8-6.8 44.8-12.7 65.4-16.1 3-0.5 8.7-1.6 12.5-2.5 3.9-0.8 9-1.8 11.5-2.1s7.7-1.1 11.5-1.9c18.3-3.6 33-5.2 61.3-6.7 22-1.2 50.4-0.2 63.7 2.3 15.1 2.7 36.2 8.2 37.8 9.8 0.6 0.6 1.8 1.1 2.7 1.1s3.4 0.8 5.6 1.9c2.1 1 5.7 2.7 7.9 3.7s7.5 4 11.8 6.6c4.2 2.7 7.7 4.3 7.7 3.6s-1.6-4.2-3.5-7.8c-1.9-3.5-3.5-6.9-3.5-7.4 0-0.6-2.3-5.1-5.2-10.1-5.7-10-13.7-20.1-20.4-25.6-4.9-4.2-16.3-9.9-27.4-13.8-14.3-5.2-41.5-7.1-64.5-4.6z" fill="#235be3"/></svg>
