<svg
  viewBox="0 0 24 25"
  fill="none"
  xmlns="http://www.w3.org/2000/svg"
>
  <path
    d="M22.2125 6.15605C21.4491 6.49375 20.6395 6.71555 19.8106 6.81411C20.6839 6.29132 21.3374 5.4689 21.6493 4.50005C20.8287 4.98761 19.9305 5.33077 18.9938 5.51461C18.2031 4.67106 17.098 4.19303 15.9418 4.19434C13.6326 4.19434 11.7597 6.06661 11.7597 8.37683C11.7597 8.70458 11.7973 9.02242 11.8676 9.32909C8.39048 9.15404 5.31008 7.49005 3.24678 4.95941C2.87529 5.59767 2.68006 6.32318 2.68105 7.06167C2.68105 8.51259 3.41961 9.79324 4.5415 10.543C3.87738 10.522 3.22789 10.3426 2.64719 10.0197C2.64655 10.0373 2.64654 10.0549 2.64654 10.0715C2.64654 12.0984 4.0882 13.7892 6.002 14.1731C5.64281 14.2703 5.27233 14.3194 4.90022 14.3191C4.62997 14.3191 4.36772 14.2942 4.1128 14.2453C4.64532 15.9065 6.18886 17.1159 8.0196 17.1491C6.53813 18.3118 4.70869 18.9426 2.82543 18.9399C2.49212 18.9402 2.15909 18.9205 1.82812 18.8811C3.74004 20.1102 5.96552 20.7625 8.23842 20.7601C15.9316 20.7601 20.138 14.3875 20.138 8.86111C20.138 8.6803 20.1336 8.49886 20.1256 8.31997C20.9443 7.72845 21.651 6.99567 22.2125 6.15605Z"
    fill="currentColor"
  />
</svg>
