<svg width="24" height="24" version="1.1" viewBox="0 0 24 24" xmlns="http://www.w3.org/2000/svg">
 <rect x="-1.1921e-7" y=".76947" width="24" height="22.953" rx="2.4444" ry="2.4444" fill="#235be3" style="-inkscape-stroke:none;paint-order:fill markers stroke"/>
 <g transform="matrix(1.2435 0 0 1.2435 -2.8239 -2.7353)" fill="#f9f9f9">
  <path d="m12.408 4.9415c-0.82846 0-1.6061 0.1383-2.3064 0.43457h-0.0027l-0.0027 0.00261c-0.69045 0.29792-1.2844 0.75768-1.7067 1.3535-0.44083 0.61142-0.65447 1.3626-0.65447 2.1414 0 1.0757 0.32484 2.0801 1.0184 2.8038l0.00524 0.0027 0.00261 0.0052c0.65031 0.66415 1.5265 1.1564 2.597 1.5446h0.0027l0.0027 0.0027c0.6613 0.234 1.159 0.45531 1.4555 0.6283l0.02628 0.0158c0.29876 0.16149 0.4329 0.30728 0.46337 0.35603 0.04443 0.07111 0.08901 0.18455 0.08901 0.41624 0 0.30909-0.04199 0.38357-0.26179 0.54976l-0.0052 0.0027-0.0027 0.0052c-0.17243 0.13363-0.5862 0.28797-1.3142 0.28797-0.53478 0-1.0516-0.06269-1.5524-0.18325-0.52365-0.12874-0.94694-0.26812-1.2566-0.40576l-1.4137-0.62829v3.5682l0.57577 0.26936c0.47409 0.2231 1.0109 0.37673 1.6205 0.48431 0.61331 0.10823 1.2672 0.15969 1.9608 0.15969 1.4064 0 2.6473-0.32473 3.6048-1.0602 0.96999-0.74507 1.5027-1.9161 1.5027-3.1781 0-0.7352-0.1574-1.43-0.52096-2.0184-0.33244-0.55495-0.81768-1.0081-1.4006-1.3535-0.53584-0.33444-1.1589-0.62269-1.877-0.88485l0.01314 0.0027c-0.59311-0.22499-1.0493-0.43131-1.3456-0.5969-0.26219-0.14652-0.38361-0.27659-0.42672-0.34556-0.04112-0.065785-0.08901-0.18555-0.08901-0.43195 0-0.26157 0.02913-0.30718 0.18064-0.43195l0.0079-0.00524 0.0052-0.00524c0.11652-0.099388 0.40046-0.22514 0.97386-0.22514 0.42555 0 0.82049 0.047827 1.1964 0.14398h0.0027l0.0027 0.00261c0.42487 0.10622 0.80872 0.23234 1.1493 0.37959l0.97888 0.42405 1.1335-3.1179-0.85082-0.38221c-0.49912-0.2246-1.043-0.40062-1.6257-0.53143-0.60956-0.13684-1.2604-0.20158-1.9556-0.20158zm-2.2959 1.966c-0.0031 0.00255-0.0021 0.00791-0.0052 0.010468-0.0021 0.00181-0.0058 8.044e-4 -0.0079 0.00261z" color="#000000" fill="#f9f9f9" style="-inkscape-stroke:none;paint-order:fill markers stroke"/>
 </g>
</svg>
